<?xml version='1.0' encoding='UTF-8'?>
<svg height="375" version="1.1" width="375" xmlns="http://www.w3.org/2000/svg"><rect height="15" width="15" x="0" y="0"/><rect height="15" width="15" x="15" y="0"/><rect height="15" width="15" x="30" y="0"/><rect height="15" width="15" x="45" y="0"/><rect height="15" width="15" x="60" y="0"/><rect height="15" width="15" x="75" y="0"/><rect height="15" width="15" x="90" y="0"/><rect height="15" width="15" x="150" y="0"/><rect height="15" width="15" x="180" y="0"/><rect height="15" width="15" x="195" y="0"/><rect height="15" width="15" x="240" y="0"/><rect height="15" width="15" x="270" y="0"/><rect height="15" width="15" x="285" y="0"/><rect height="15" width="15" x="300" y="0"/><rect height="15" width="15" x="315" y="0"/><rect height="15" width="15" x="330" y="0"/><rect height="15" width="15" x="345" y="0"/><rect height="15" width="15" x="360" y="0"/><rect height="15" width="15" x="0" y="15"/><rect height="15" width="15" x="90" y="15"/><rect height="15" width="15" x="120" y="15"/><rect height="15" width="15" x="150" y="15"/><rect height="15" width="15" x="210" y="15"/><rect height="15" width="15" x="225" y="15"/><rect height="15" width="15" x="240" y="15"/><rect height="15" width="15" x="270" y="15"/><rect height="15" width="15" x="360" y="15"/><rect height="15" width="15" x="0" y="30"/><rect height="15" width="15" x="30" y="30"/><rect height="15" width="15" x="45" y="30"/><rect height="15" width="15" x="60" y="30"/><rect height="15" width="15" x="90" y="30"/><rect height="15" width="15" x="180" y="30"/><rect height="15" width="15" x="210" y="30"/><rect height="15" width="15" x="240" y="30"/><rect height="15" width="15" x="270" y="30"/><rect height="15" width="15" x="300" y="30"/><rect height="15" width="15" x="315" y="30"/><rect height="15" width="15" x="330" y="30"/><rect height="15" width="15" x="360" y="30"/><rect height="15" width="15" x="0" y="45"/><rect height="15" width="15" x="30" y="45"/><rect height="15" width="15" x="45" y="45"/><rect height="15" width="15" x="60" y="45"/><rect height="15" width="15" x="90" y="45"/><rect height="15" width="15" x="120" y="45"/><rect height="15" width="15" x="135" y="45"/><rect height="15" width="15" x="150" y="45"/><rect height="15" width="15" x="180" y="45"/><rect height="15" width="15" x="195" y="45"/><rect height="15" width="15" x="270" y="45"/><rect height="15" width="15" x="300" y="45"/><rect height="15" width="15" x="315" y="45"/><rect height="15" width="15" x="330" y="45"/><rect height="15" width="15" x="360" y="45"/><rect height="15" width="15" x="0" y="60"/><rect height="15" width="15" x="30" y="60"/><rect height="15" width="15" x="45" y="60"/><rect height="15" width="15" x="60" y="60"/><rect height="15" width="15" x="90" y="60"/><rect height="15" width="15" x="135" y="60"/><rect height="15" width="15" x="195" y="60"/><rect height="15" width="15" x="240" y="60"/><rect height="15" width="15" x="270" y="60"/><rect height="15" width="15" x="300" y="60"/><rect height="15" width="15" x="315" y="60"/><rect height="15" width="15" x="330" y="60"/><rect height="15" width="15" x="360" y="60"/><rect height="15" width="15" x="0" y="75"/><rect height="15" width="15" x="90" y="75"/><rect height="15" width="15" x="120" y="75"/><rect height="15" width="15" x="135" y="75"/><rect height="15" width="15" x="165" y="75"/><rect height="15" width="15" x="180" y="75"/><rect height="15" width="15" x="195" y="75"/><rect height="15" width="15" x="210" y="75"/><rect height="15" width="15" x="225" y="75"/><rect height="15" width="15" x="240" y="75"/><rect height="15" width="15" x="270" y="75"/><rect height="15" width="15" x="360" y="75"/><rect height="15" width="15" x="0" y="90"/><rect height="15" width="15" x="15" y="90"/><rect height="15" width="15" x="30" y="90"/><rect height="15" width="15" x="45" y="90"/><rect height="15" width="15" x="60" y="90"/><rect height="15" width="15" x="75" y="90"/><rect height="15" width="15" x="90" y="90"/><rect height="15" width="15" x="120" y="90"/><rect height="15" width="15" x="150" y="90"/><rect height="15" width="15" x="180" y="90"/><rect height="15" width="15" x="210" y="90"/><rect height="15" width="15" x="240" y="90"/><rect height="15" width="15" x="270" y="90"/><rect height="15" width="15" x="285" y="90"/><rect height="15" width="15" x="300" y="90"/><rect height="15" width="15" x="315" y="90"/><rect height="15" width="15" x="330" y="90"/><rect height="15" width="15" x="345" y="90"/><rect height="15" width="15" x="360" y="90"/><rect height="15" width="15" x="135" y="105"/><rect height="15" width="15" x="150" y="105"/><rect height="15" width="15" x="165" y="105"/><rect height="15" width="15" x="210" y="105"/><rect height="15" width="15" x="0" y="120"/><rect height="15" width="15" x="15" y="120"/><rect height="15" width="15" x="30" y="120"/><rect height="15" width="15" x="45" y="120"/><rect height="15" width="15" x="60" y="120"/><rect height="15" width="15" x="90" y="120"/><rect height="15" width="15" x="105" y="120"/><rect height="15" width="15" x="120" y="120"/><rect height="15" width="15" x="135" y="120"/><rect height="15" width="15" x="165" y="120"/><rect height="15" width="15" x="225" y="120"/><rect height="15" width="15" x="255" y="120"/><rect height="15" width="15" x="285" y="120"/><rect height="15" width="15" x="315" y="120"/><rect height="15" width="15" x="345" y="120"/><rect height="15" width="15" x="0" y="135"/><rect height="15" width="15" x="15" y="135"/><rect height="15" width="15" x="30" y="135"/><rect height="15" width="15" x="105" y="135"/><rect height="15" width="15" x="150" y="135"/><rect height="15" width="15" x="180" y="135"/><rect height="15" width="15" x="195" y="135"/><rect height="15" width="15" x="240" y="135"/><rect height="15" width="15" x="285" y="135"/><rect height="15" width="15" x="345" y="135"/><rect height="15" width="15" x="30" y="150"/><rect height="15" width="15" x="75" y="150"/><rect height="15" width="15" x="90" y="150"/><rect height="15" width="15" x="105" y="150"/><rect height="15" width="15" x="150" y="150"/><rect height="15" width="15" x="195" y="150"/><rect height="15" width="15" x="210" y="150"/><rect height="15" width="15" x="225" y="150"/><rect height="15" width="15" x="255" y="150"/><rect height="15" width="15" x="270" y="150"/><rect height="15" width="15" x="315" y="150"/><rect height="15" width="15" x="345" y="150"/><rect height="15" width="15" x="360" y="150"/><rect height="15" width="15" x="15" y="165"/><rect height="15" width="15" x="45" y="165"/><rect height="15" width="15" x="60" y="165"/><rect height="15" width="15" x="75" y="165"/><rect height="15" width="15" x="120" y="165"/><rect height="15" width="15" x="180" y="165"/><rect height="15" width="15" x="195" y="165"/><rect height="15" width="15" x="240" y="165"/><rect height="15" width="15" x="255" y="165"/><rect height="15" width="15" x="270" y="165"/><rect height="15" width="15" x="285" y="165"/><rect height="15" width="15" x="300" y="165"/><rect height="15" width="15" x="360" y="165"/><rect height="15" width="15" x="0" y="180"/><rect height="15" width="15" x="45" y="180"/><rect height="15" width="15" x="90" y="180"/><rect height="15" width="15" x="120" y="180"/><rect height="15" width="15" x="135" y="180"/><rect height="15" width="15" x="150" y="180"/><rect height="15" width="15" x="180" y="180"/><rect height="15" width="15" x="210" y="180"/><rect height="15" width="15" x="255" y="180"/><rect height="15" width="15" x="270" y="180"/><rect height="15" width="15" x="300" y="180"/><rect height="15" width="15" x="330" y="180"/><rect height="15" width="15" x="345" y="180"/><rect height="15" width="15" x="360" y="180"/><rect height="15" width="15" x="0" y="195"/><rect height="15" width="15" x="15" y="195"/><rect height="15" width="15" x="60" y="195"/><rect height="15" width="15" x="75" y="195"/><rect height="15" width="15" x="135" y="195"/><rect height="15" width="15" x="255" y="195"/><rect height="15" width="15" x="285" y="195"/><rect height="15" width="15" x="315" y="195"/><rect height="15" width="15" x="345" y="195"/><rect height="15" width="15" x="0" y="210"/><rect height="15" width="15" x="75" y="210"/><rect height="15" width="15" x="90" y="210"/><rect height="15" width="15" x="105" y="210"/><rect height="15" width="15" x="120" y="210"/><rect height="15" width="15" x="165" y="210"/><rect height="15" width="15" x="180" y="210"/><rect height="15" width="15" x="225" y="210"/><rect height="15" width="15" x="240" y="210"/><rect height="15" width="15" x="285" y="210"/><rect height="15" width="15" x="315" y="210"/><rect height="15" width="15" x="345" y="210"/><rect height="15" width="15" x="360" y="210"/><rect height="15" width="15" x="0" y="225"/><rect height="15" width="15" x="45" y="225"/><rect height="15" width="15" x="60" y="225"/><rect height="15" width="15" x="75" y="225"/><rect height="15" width="15" x="105" y="225"/><rect height="15" width="15" x="150" y="225"/><rect height="15" width="15" x="165" y="225"/><rect height="15" width="15" x="210" y="225"/><rect height="15" width="15" x="240" y="225"/><rect height="15" width="15" x="270" y="225"/><rect height="15" width="15" x="360" y="225"/><rect height="15" width="15" x="0" y="240"/><rect height="15" width="15" x="30" y="240"/><rect height="15" width="15" x="60" y="240"/><rect height="15" width="15" x="90" y="240"/><rect height="15" width="15" x="105" y="240"/><rect height="15" width="15" x="120" y="240"/><rect height="15" width="15" x="165" y="240"/><rect height="15" width="15" x="225" y="240"/><rect height="15" width="15" x="240" y="240"/><rect height="15" width="15" x="255" y="240"/><rect height="15" width="15" x="270" y="240"/><rect height="15" width="15" x="285" y="240"/><rect height="15" width="15" x="300" y="240"/><rect height="15" width="15" x="330" y="240"/><rect height="15" width="15" x="120" y="255"/><rect height="15" width="15" x="180" y="255"/><rect height="15" width="15" x="195" y="255"/><rect height="15" width="15" x="210" y="255"/><rect height="15" width="15" x="240" y="255"/><rect height="15" width="15" x="300" y="255"/><rect height="15" width="15" x="315" y="255"/><rect height="15" width="15" x="0" y="270"/><rect height="15" width="15" x="15" y="270"/><rect height="15" width="15" x="30" y="270"/><rect height="15" width="15" x="45" y="270"/><rect height="15" width="15" x="60" y="270"/><rect height="15" width="15" x="75" y="270"/><rect height="15" width="15" x="90" y="270"/><rect height="15" width="15" x="120" y="270"/><rect height="15" width="15" x="135" y="270"/><rect height="15" width="15" x="195" y="270"/><rect height="15" width="15" x="210" y="270"/><rect height="15" width="15" x="240" y="270"/><rect height="15" width="15" x="270" y="270"/><rect height="15" width="15" x="300" y="270"/><rect height="15" width="15" x="330" y="270"/><rect height="15" width="15" x="345" y="270"/><rect height="15" width="15" x="360" y="270"/><rect height="15" width="15" x="0" y="285"/><rect height="15" width="15" x="90" y="285"/><rect height="15" width="15" x="180" y="285"/><rect height="15" width="15" x="195" y="285"/><rect height="15" width="15" x="240" y="285"/><rect height="15" width="15" x="300" y="285"/><rect height="15" width="15" x="315" y="285"/><rect height="15" width="15" x="345" y="285"/><rect height="15" width="15" x="0" y="300"/><rect height="15" width="15" x="30" y="300"/><rect height="15" width="15" x="45" y="300"/><rect height="15" width="15" x="60" y="300"/><rect height="15" width="15" x="90" y="300"/><rect height="15" width="15" x="120" y="300"/><rect height="15" width="15" x="135" y="300"/><rect height="15" width="15" x="180" y="300"/><rect height="15" width="15" x="210" y="300"/><rect height="15" width="15" x="225" y="300"/><rect height="15" width="15" x="240" y="300"/><rect height="15" width="15" x="255" y="300"/><rect height="15" width="15" x="270" y="300"/><rect height="15" width="15" x="285" y="300"/><rect height="15" width="15" x="300" y="300"/><rect height="15" width="15" x="330" y="300"/><rect height="15" width="15" x="360" y="300"/><rect height="15" width="15" x="0" y="315"/><rect height="15" width="15" x="30" y="315"/><rect height="15" width="15" x="45" y="315"/><rect height="15" width="15" x="60" y="315"/><rect height="15" width="15" x="90" y="315"/><rect height="15" width="15" x="120" y="315"/><rect height="15" width="15" x="135" y="315"/><rect height="15" width="15" x="225" y="315"/><rect height="15" width="15" x="255" y="315"/><rect height="15" width="15" x="270" y="315"/><rect height="15" width="15" x="300" y="315"/><rect height="15" width="15" x="315" y="315"/><rect height="15" width="15" x="330" y="315"/><rect height="15" width="15" x="345" y="315"/><rect height="15" width="15" x="360" y="315"/><rect height="15" width="15" x="0" y="330"/><rect height="15" width="15" x="30" y="330"/><rect height="15" width="15" x="45" y="330"/><rect height="15" width="15" x="60" y="330"/><rect height="15" width="15" x="90" y="330"/><rect height="15" width="15" x="120" y="330"/><rect height="15" width="15" x="150" y="330"/><rect height="15" width="15" x="165" y="330"/><rect height="15" width="15" x="180" y="330"/><rect height="15" width="15" x="285" y="330"/><rect height="15" width="15" x="315" y="330"/><rect height="15" width="15" x="330" y="330"/><rect height="15" width="15" x="360" y="330"/><rect height="15" width="15" x="0" y="345"/><rect height="15" width="15" x="90" y="345"/><rect height="15" width="15" x="120" y="345"/><rect height="15" width="15" x="165" y="345"/><rect height="15" width="15" x="210" y="345"/><rect height="15" width="15" x="225" y="345"/><rect height="15" width="15" x="240" y="345"/><rect height="15" width="15" x="255" y="345"/><rect height="15" width="15" x="270" y="345"/><rect height="15" width="15" x="285" y="345"/><rect height="15" width="15" x="300" y="345"/><rect height="15" width="15" x="315" y="345"/><rect height="15" width="15" x="360" y="345"/><rect height="15" width="15" x="0" y="360"/><rect height="15" width="15" x="15" y="360"/><rect height="15" width="15" x="30" y="360"/><rect height="15" width="15" x="45" y="360"/><rect height="15" width="15" x="60" y="360"/><rect height="15" width="15" x="75" y="360"/><rect height="15" width="15" x="90" y="360"/><rect height="15" width="15" x="120" y="360"/><rect height="15" width="15" x="165" y="360"/><rect height="15" width="15" x="255" y="360"/><rect height="15" width="15" x="270" y="360"/><rect height="15" width="15" x="285" y="360"/><rect height="15" width="15" x="300" y="360"/><rect height="15" width="15" x="315" y="360"/><rect height="15" width="15" x="330" y="360"/><rect height="15" width="15" x="345" y="360"/><rect height="15" width="15" x="360" y="360"/></svg>